<svg width="198" height="37" viewBox="0 0 198 37" fill="none" xmlns="http://www.w3.org/2000/svg">
<path d="M120.08 5.18905C116.514 6.63295 114.456 8.70856 111.301 13.9427C109.883 16.3342 108.237 18.9964 107.688 19.8537C102.201 28.472 101.423 30.9537 103.618 32.9842L104.807 34.0671L140.2 34.2025C179.114 34.3378 178.474 34.383 182.361 31.5854C184.236 30.2769 185.242 28.7427 192.467 16.6952C197.177 8.79881 197.497 7.53539 195.302 5.41466L193.976 4.10612L158.4 4.061H122.778L120.08 5.18905ZM131.695 19.4025V28.8781H129.454C128.037 28.8781 127.122 28.6525 126.985 28.2915C126.848 27.8854 126.619 27.8854 126.025 28.3817C124.79 29.3744 120.995 29.2391 119.44 28.1561C117.748 26.8927 116.605 24.5012 116.605 22.1098C116.605 16.9208 121.315 13.4464 125.476 15.5671C126.162 15.9281 126.848 16.2439 126.939 16.2439C127.031 16.2439 127.122 14.8 127.122 13.0854V9.92686H129.409H131.695V19.4025ZM143.95 15.7927C145.048 16.2891 146.236 17.2366 146.694 18.0488C147.105 18.7708 147.563 19.4025 147.7 19.4025C147.837 19.4025 148.248 18.8159 148.66 18.0939C149.072 17.4171 150.352 16.3793 151.541 15.7927C154.33 14.4842 157.257 14.8 159.543 16.6049L161.144 17.8683L162.378 16.5147C163.567 15.2061 163.842 15.1159 166.768 15.1159C169.009 15.1159 170.289 15.3415 171.158 15.9281C172.347 16.6952 172.393 16.7854 171.707 18.0488C170.884 19.6281 170.792 19.6281 168.506 18.6805C166.631 17.9134 165.533 18.0939 165.533 19.1317C165.533 19.583 166.402 20.0793 167.911 20.5305C170.975 21.3878 172.393 22.7415 172.393 24.6366C172.393 26.7573 171.981 27.4793 170.381 28.2915C168.506 29.2842 163.887 29.2391 161.921 28.2464C160.503 27.5244 160.32 27.5244 158.766 28.2464C155.245 29.9159 150.26 28.8781 148.706 26.1256C148.248 25.4037 147.837 24.8171 147.7 24.8171C147.563 24.8171 147.151 25.4037 146.694 26.1256C145.642 27.9756 143.447 28.9683 140.383 29.0134C135.582 29.0586 132.838 26.5317 132.838 22.1098C132.838 18.9061 133.799 17.372 136.725 15.883C139.194 14.6647 141.344 14.6195 143.95 15.7927Z" fill="black"/>
<path d="M123.098 19.1768C120.72 20.1695 120.538 23.6439 122.778 25.0878C124.973 26.4866 127.488 24.3659 126.939 21.4781C126.528 19.3122 125.019 18.4098 123.098 19.1768Z" fill="black"/>
<path d="M138.829 19.4476C137.64 20.3952 137.274 22.3805 137.914 24.1403C138.371 25.2683 140.246 25.8098 141.435 25.2232C142.807 24.5013 143.127 23.9598 143.127 22.0647C143.127 19.4025 140.749 17.9586 138.829 19.4476Z" fill="black"/>
<path d="M153.187 19.8537C152.09 20.9366 151.998 22.8769 153.004 24.2757C153.827 25.4488 156.434 25.6293 157.303 24.5915C157.806 24.0049 157.988 24.0049 158.812 24.5915C159.955 25.3586 161.281 25.494 161.509 24.8171C161.601 24.5013 162.195 24.5915 163.11 25.0427C164.665 25.8098 168.094 25.8098 167.957 25.0427C167.911 24.8171 166.814 24.2757 165.442 23.8244C162.881 22.9671 160.961 21.2525 160.961 19.8086C160.961 18.8159 160.183 18.7257 158.949 19.6281C158.171 20.2147 157.943 20.2147 157.028 19.6281C155.565 18.6805 154.285 18.7708 153.187 19.8537Z" fill="black"/>
<path d="M61.7321 10.1525C61.0462 10.9647 61.5035 13.0403 62.418 13.4013C64.4758 14.1683 66.3963 12.2281 65.3903 10.3781C64.7959 9.29516 62.6009 9.15979 61.7321 10.1525Z" fill="black"/>
<path d="M95.1133 19.6281V28.8781H97.171H99.2288V19.6281V10.3781H97.171H95.1133V19.6281Z" fill="black"/>
<path d="M7.6365 15.6573C7.45359 15.7927 7.31641 18.861 7.31641 22.4256V28.8781H9.37414H11.4319V24.9073C11.4319 20.3049 12.0721 18.9512 14.1755 18.9512C16.279 18.9512 16.9192 20.3049 16.9192 24.9073V28.8781H18.9769H21.0347V24.9073C21.0347 20.3049 21.6748 18.9512 23.7783 18.9512C25.8818 18.9512 26.5219 20.3049 26.5219 24.9073V28.8781H28.351H30.1801V23.4183C30.1801 18.0037 30.1801 17.9585 28.8541 16.65C27.9852 15.7927 27.025 15.3415 26.1561 15.3415C24.1898 15.3415 21.9949 16.1988 21.4462 17.2366C20.9889 18.0939 20.9432 18.0939 19.8 16.9207C19.1598 16.289 18.1081 15.6573 17.5136 15.522C16.0504 15.161 13.4896 15.6573 12.8037 16.4695C12.0263 17.372 11.5691 17.3268 11.2947 16.2439C11.1118 15.5671 10.6545 15.3415 9.51133 15.3415C8.6425 15.3415 7.77368 15.4768 7.6365 15.6573Z" fill="black"/>
<path d="M34.5244 15.9732C33.0153 16.4244 32.6953 16.6951 32.8324 17.5976C32.9696 19.0866 33.0611 19.0866 35.5304 18.5902C37.9539 18.0488 39.8745 18.6354 40.1488 19.8988C40.2403 20.5305 39.7373 20.6659 37.3137 20.8463C33.3812 21.072 31.8264 22.1549 31.6435 24.7268C31.4606 27.4341 32.9696 28.8781 35.9876 28.8781C37.268 28.8781 38.6398 28.5622 39.2343 28.1561C40.1488 27.5244 40.2403 27.5244 40.2403 28.1561C40.2403 28.6976 40.7433 28.8781 42.298 28.8781H44.3558V23.9146C44.3558 21.2073 44.1271 18.5 43.8528 17.8683C42.801 15.5671 38.5941 14.7098 34.5244 15.9732ZM40.2403 23.8695C40.2403 25.9902 36.6278 26.9829 35.5304 25.1781C34.753 23.9598 35.9419 23.0122 38.2283 23.0122C39.9202 23.0122 40.2403 23.1476 40.2403 23.8695Z" fill="black"/>
<path d="M48.1968 16.0634C44.5386 17.8232 44.3099 24.3208 47.7852 26.9829C49.2942 28.1561 52.358 28.2915 53.867 27.2537C54.8272 26.5768 54.873 26.622 54.873 27.8854C54.873 28.6073 54.5072 29.5098 54.0499 29.9159C53.0896 30.8183 49.7972 30.9537 48.3797 30.1866C47.5566 29.7805 47.2822 29.8256 46.7792 30.5025C46.4591 30.9537 46.1848 31.5403 46.1848 31.811C46.1848 32.6232 48.4254 33.4805 51.2148 33.7061C53.2268 33.8866 54.1413 33.7061 55.7875 32.8488C56.9307 32.2622 58.1196 31.3147 58.394 30.6829C58.8055 29.9159 58.9884 27.1634 58.9884 22.4256V15.3415H57.1593C55.9704 15.3415 55.1931 15.5671 55.0559 15.9732C54.8272 16.5147 54.5986 16.5147 53.2725 15.9732C51.2605 15.161 49.9801 15.2061 48.1968 16.0634ZM54.2785 19.3573C55.8333 21.3427 54.37 25.2683 52.1293 25.2683C50.8032 25.2683 48.9284 23.2829 48.9284 21.8842C48.9284 18.6354 52.4494 16.9659 54.2785 19.3573Z" fill="black"/>
<path d="M61.595 15.6122C61.4121 15.7927 61.2749 18.861 61.2749 22.4256V28.8781H63.3326H65.4361L65.2989 22.2L65.1617 15.5671L63.5613 15.4317C62.6467 15.3415 61.7779 15.4317 61.595 15.6122Z" fill="black"/>
<path d="M71.1976 15.7927C69.3228 16.3793 68.5454 17.1012 67.5394 19.3573C66.0304 22.7866 67.2651 26.5768 70.4203 28.2012C72.981 29.5098 77.4166 28.8329 79.0627 26.8927C79.6115 26.261 79.7944 26.3512 80.9376 27.5244C82.035 28.6524 82.5838 28.8781 84.4586 28.8781C85.739 28.8781 87.1108 28.5622 87.7052 28.1561C88.6198 27.5244 88.7112 27.5244 88.7112 28.1561C88.7112 28.6976 89.2142 28.8781 90.769 28.8781H92.8267V23.9146C92.8267 18.1841 92.278 16.6049 90.0373 15.8378C88.2082 15.2061 85.3731 15.2512 83.041 15.9281C80.9833 16.5598 80.6632 17.0561 81.532 18.1841C82.035 18.9061 82.4009 18.9512 84.1385 18.5451C86.4249 18.0488 88.3454 18.6354 88.6198 19.8988C88.7112 20.5305 88.2082 20.6659 85.7847 20.8463C82.1265 21.072 80.3431 22.1549 80.1145 24.2756C79.9316 25.9451 79.9316 25.9451 78.1482 25.0427C76.9136 24.411 76.6849 24.411 75.8161 25.0427C74.3071 26.0354 72.8895 25.8549 71.8378 24.5463C70.5574 22.922 70.6032 20.9817 72.0207 19.6281C73.3011 18.3195 74.8101 18.1841 75.9533 19.222C76.6849 19.8988 76.8678 19.8537 78.1482 19.1317C78.9256 18.6805 79.52 18.0939 79.4286 17.8683C78.8341 16.1537 73.9413 14.8902 71.1976 15.7927ZM88.7112 24.1402C88.7112 26.0354 85.1445 27.0281 84.1842 25.4037C83.4069 23.9598 84.4129 23.0122 86.6535 23.0122C88.5283 23.0122 88.7112 23.1024 88.7112 24.1402Z" fill="black"/>
</svg>
